<svg width="28" height="28" viewBox="0 0 28 28" fill="none" xmlns="http://www.w3.org/2000/svg">
<path d="M22.1667 3.5V3.5C22.6625 3.5 22.9104 3.5 23.1151 3.54852C23.7774 3.70549 24.2945 4.2226 24.4515 4.88489C24.5 5.08961 24.5 5.33752 24.5 5.83333V19.2867C24.5 20.2948 24.5 20.7988 24.3038 21.1838C24.1312 21.5225 23.8559 21.7979 23.5172 21.9705C23.1321 22.1667 22.6281 22.1667 21.62 22.1667H6.38C5.37191 22.1667 4.86786 22.1667 4.48282 21.9705C4.14413 21.7979 3.86876 21.5225 3.69619 21.1838C3.5 20.7988 3.5 20.2948 3.5 19.2867V5.83333C3.5 5.33752 3.5 5.08961 3.54852 4.88489C3.70549 4.2226 4.2226 3.70549 4.88489 3.54852C5.08961 3.5 5.33752 3.5 5.83333 3.5V3.5" stroke="white" stroke-width="2"/>
<path d="M22.1667 3.5H21.0694C20.468 3.5 20.1673 3.5 19.9256 3.64935C19.684 3.7987 19.5495 4.06766 19.2805 4.60557L19.2194 4.72776C18.9505 5.26568 18.816 5.53463 18.5744 5.68398C18.3327 5.83333 18.032 5.83333 17.4306 5.83333H10.4028C9.82487 5.83333 9.53591 5.83333 9.30282 5.69778C9.26751 5.67724 9.2335 5.65456 9.20096 5.62987C8.98618 5.46685 8.87505 5.20012 8.65277 4.66667V4.66667C8.4305 4.13321 8.31936 3.86649 8.10459 3.70346C8.07205 3.67877 8.03803 3.65609 8.00272 3.63556C7.76964 3.5 7.48068 3.5 6.90277 3.5H5.83333" stroke="white" stroke-width="2"/>
<path d="M24.5 9.33337H21.0694C20.468 9.33337 20.1673 9.33337 19.9256 9.48272C19.684 9.63207 19.5495 9.90103 19.2805 10.4389L19.2195 10.5611C18.9505 11.0991 18.816 11.368 18.5744 11.5174C18.3327 11.6667 18.032 11.6667 17.4306 11.6667H10.4028C9.82487 11.6667 9.53592 11.6667 9.30283 11.5312C9.26752 11.5106 9.2335 11.4879 9.20096 11.4632C8.98619 11.3002 8.87505 11.0335 8.65278 10.5V10.5C8.43051 9.96659 8.31937 9.69986 8.10459 9.53684C8.07206 9.51214 8.03804 9.48946 8.00273 9.46893C7.76964 9.33337 7.48069 9.33337 6.90278 9.33337H3.5" stroke="white" stroke-width="2"/>
<path d="M24.5 15.1666H21.0694C20.468 15.1666 20.1673 15.1666 19.9256 15.316C19.684 15.4653 19.5495 15.7343 19.2805 16.2722L19.2195 16.3944C18.9505 16.9323 18.816 17.2013 18.5744 17.3506C18.3327 17.5 18.032 17.5 17.4306 17.5H10.4028C9.82487 17.5 9.53592 17.5 9.30283 17.3644C9.26752 17.3439 9.2335 17.3212 9.20096 17.2965C8.98619 17.1335 8.87505 16.8667 8.65278 16.3333V16.3333C8.43051 15.7998 8.31937 15.5331 8.10459 15.3701C8.07206 15.3454 8.03804 15.3227 8.00273 15.3022C7.76964 15.1666 7.48069 15.1666 6.90278 15.1666H3.5" stroke="white" stroke-width="2"/>
</svg>
