<svg width="30" height="23" viewBox="0 0 30 23" fill="none" xmlns="http://www.w3.org/2000/svg">
<path d="M16.813 8.29803C16.813 7.77193 17.2577 7.34448 17.805 7.32804L20.5245 7.19652V4.08926L17.7537 3.95773C17.2235 3.92485 16.7959 3.53028 16.7617 3.00418L16.6249 0.340816H13.3751L13.2383 3.00418C13.2041 3.51384 12.7765 3.92485 12.2463 3.95773L9.47548 4.08926V7.19652L12.195 7.32804C12.7423 7.36092 13.1699 7.77193 13.187 8.29803L13.3409 14.381H16.6591L16.813 8.29803Z" fill="#49AF86"/>
<path d="M3.72862 15.5154V4.1057H0V22.1738H3.72862V21.7135C3.72862 21.1052 4.03649 20.5298 4.5496 20.1681L11.9897 17.2088C12.6226 16.9622 13.1357 16.469 13.2896 15.8278C13.3238 15.6634 13.358 15.499 13.358 15.3346V14.3646L4.80616 16.321C4.25884 16.4525 3.72862 16.0415 3.72862 15.499V15.5154Z" fill="#49AF86"/>
<path d="M26.2714 15.5154C26.2714 16.058 25.7412 16.4526 25.1939 16.3375L16.642 14.381V15.351C16.642 15.5154 16.6591 15.6798 16.7104 15.8443C16.8643 16.4854 17.3945 16.9786 18.0103 17.2253L25.4504 20.1846C25.9635 20.5462 26.2714 21.1217 26.2714 21.73V22.1903H30V4.12216H26.2714V15.5319V15.5154Z" fill="#49AF86"/>
</svg>
