<svg width="160" height="33" viewBox="0 0 160 33" fill="none" xmlns="http://www.w3.org/2000/svg">
<path d="M157.428 24.409C157.428 25.4883 156.527 26.3542 155.404 26.3542H148.485V23.1666C149.007 23.0913 149.503 22.9533 149.973 22.765C150.783 22.4387 151.488 21.987 152.101 21.4222C152.715 20.8575 153.185 20.1924 153.524 19.4268C153.864 18.6613 154.033 17.8581 154.033 17.0173C154.033 16.1012 153.851 15.2603 153.472 14.4823C153.107 13.7167 152.61 13.0642 152.01 12.512H154.36V10.3283H148.537V8.29529H146.004V10.3283H140.181V12.512H142.531C142.531 12.512 142.505 12.5245 142.505 12.5371C141.891 13.1018 141.408 13.7669 141.056 14.5325C140.703 15.298 140.534 16.1263 140.534 17.0047C140.534 17.9585 140.716 18.8119 141.095 19.5649C141.461 20.3304 141.957 20.983 142.583 21.5352C143.21 22.0873 143.928 22.514 144.751 22.8027C145.142 22.9407 145.534 23.0537 145.939 23.1164V26.3417H136.526V13.8171C136.526 11.6711 134.711 9.92674 132.478 9.92674H116.694V12.1104H131.969C133.092 12.1104 133.993 12.9763 133.993 14.0556V26.3417H129.606V18.1342H127.073V26.3417H122.373V18.1342H119.84V26.3417H115.871V28.5253H155.927C158.159 28.5253 159.974 26.7809 159.974 24.6349V9.7385H157.441V24.409H157.428ZM145.639 20.7571C145.116 20.5437 144.672 20.2551 144.294 19.8912C143.915 19.5272 143.615 19.1005 143.406 18.6111C143.197 18.1217 143.093 17.582 143.093 17.0047C143.093 16.4275 143.21 15.8878 143.432 15.3858C143.667 14.8839 143.967 14.4572 144.359 14.0932C144.751 13.7293 145.195 13.4406 145.717 13.2273C146.239 13.014 146.774 12.9136 147.349 12.9136C147.923 12.9136 148.472 13.0265 148.994 13.2398C149.503 13.4657 149.947 13.7669 150.326 14.1434C150.704 14.5199 151.005 14.9592 151.213 15.4486C151.422 15.938 151.527 16.4526 151.527 17.0047C151.527 17.582 151.422 18.1091 151.2 18.6111C150.978 19.1005 150.678 19.5272 150.286 19.8912C149.895 20.2551 149.451 20.5437 148.955 20.7571C148.459 20.9704 147.923 21.0708 147.349 21.0708C146.735 21.0708 146.161 20.9704 145.639 20.7571Z" fill="white"/>
<path d="M34.8592 3.36335H35.9167V7.41688H36.6348V0.476929H35.9167V2.76096H34.8592V0.476929H34.1411V7.41688H34.8592V3.36335Z" fill="white"/>
<path d="M30.4855 5.45914H33.2925V4.85676H30.603V1.07931H33.0575V0.476929H30.4855C30.3157 0.476929 30.1852 0.552227 30.0677 0.690273C29.9502 0.828319 29.8849 1.00401 29.8849 1.20481V4.73126C29.8849 4.9446 29.9371 5.10775 30.0677 5.25834C30.1852 5.39639 30.3288 5.47169 30.4855 5.47169V5.45914Z" fill="white"/>
<path d="M47.5887 1.65655C47.5235 1.7444 47.4712 1.83225 47.4321 1.93265C47.3929 2.03304 47.3537 2.13344 47.3276 2.23384C47.3015 2.33423 47.2885 2.43463 47.2885 2.53503C47.2885 2.78602 47.3407 3.02446 47.4451 3.25036C47.5496 3.4637 47.6932 3.65195 47.8629 3.81509C48.0326 3.97824 48.2415 4.09119 48.4765 4.17903C48.7116 4.26688 48.9466 4.30453 49.2077 4.30453C49.4688 4.30453 49.7038 4.26688 49.9388 4.17903C50.1738 4.09119 50.3697 3.96569 50.5524 3.81509C50.7222 3.65195 50.8658 3.4637 50.9702 3.25036C51.0747 3.03701 51.1269 2.79857 51.1269 2.53503C51.1269 2.43463 51.1138 2.33423 51.0877 2.23384C51.0616 2.13344 51.0224 2.03304 50.9833 1.93265C50.9441 1.83225 50.8919 1.7444 50.8266 1.65655C50.7613 1.56871 50.696 1.49341 50.6177 1.43066H51.388V0.828277H49.5602V0H48.8421V0.828277H47.0143V1.43066H47.7846C47.7062 1.49341 47.641 1.56871 47.5757 1.65655H47.5887ZM48.0979 2.07069C48.1632 1.93265 48.2415 1.80715 48.359 1.70675C48.4635 1.60635 48.5941 1.51851 48.7377 1.46831C48.8813 1.41811 49.0379 1.38046 49.2077 1.38046C49.3774 1.38046 49.5341 1.40556 49.6777 1.46831C49.8213 1.51851 49.9519 1.60635 50.0563 1.70675C50.1608 1.80715 50.2521 1.93265 50.3174 2.07069C50.3827 2.20874 50.4088 2.37188 50.4088 2.54758C50.4088 2.72327 50.3827 2.88642 50.3174 3.02447C50.2521 3.16251 50.1738 3.28801 50.0563 3.40095C49.9519 3.50135 49.8213 3.5892 49.6777 3.6394C49.5341 3.6896 49.3774 3.72725 49.2077 3.72725C49.0379 3.72725 48.8813 3.70215 48.7377 3.6394C48.5941 3.5892 48.4635 3.50135 48.359 3.40095C48.2546 3.30056 48.1632 3.17506 48.0979 3.02447C48.0326 2.88642 48.0065 2.72327 48.0065 2.54758C48.0065 2.37188 48.0326 2.20874 48.0979 2.07069Z" fill="white"/>
<path d="M47.6541 5.10767V6.60107C47.6541 6.81442 47.7063 6.97756 47.8238 7.12816C47.9413 7.2662 48.0849 7.3415 48.2546 7.3415H53.5684V6.73912H48.3721V5.10767H47.6541Z" fill="white"/>
<path d="M53.477 2.71077H54.8479V2.10838H53.477V0.476929H52.772V5.1956H53.477V2.71077Z" fill="white"/>
<path d="M72.5256 0.476929H71.8467V7.42943H72.5256V0.476929Z" fill="white"/>
<path d="M65.7887 4.17913C65.9584 4.39247 66.1804 4.55562 66.4285 4.68112C66.6765 4.80661 66.9637 4.86936 67.2771 4.86936C67.6426 4.86936 67.956 4.79406 68.2302 4.61837C68.5043 4.45522 68.7263 4.24188 68.896 3.97834H70.2277V7.40439H70.9066V0.476984H70.2277V1.26761H68.896C68.7263 1.00407 68.5043 0.790725 68.2302 0.62758C67.956 0.464434 67.6426 0.376587 67.2771 0.376587C66.9637 0.376587 66.6765 0.439335 66.4285 0.564832C66.1804 0.690328 65.9715 0.853473 65.7887 1.06682C65.619 1.28016 65.4754 1.5186 65.384 1.78215C65.2926 2.05824 65.2534 2.33433 65.2534 2.61042C65.2534 2.88652 65.2926 3.17516 65.384 3.45125C65.4754 3.72734 65.6059 3.95324 65.7887 4.16658V4.17913ZM69.1832 1.86999H70.2147V3.3885H69.1832C69.2224 3.26301 69.2485 3.15006 69.2616 3.01201C69.2746 2.88652 69.2877 2.76102 69.2877 2.62297C69.2877 2.34688 69.2485 2.09589 69.1832 1.86999ZM66.0498 2.04569C66.1021 1.8449 66.1934 1.6692 66.2979 1.5186C66.4023 1.36801 66.546 1.24251 66.7026 1.14212C66.8593 1.04172 67.0551 0.99152 67.264 0.99152C67.4729 0.99152 67.6557 1.04172 67.8254 1.14212C67.9952 1.24251 68.1257 1.36801 68.2432 1.5186C68.3477 1.6692 68.4391 1.8449 68.4913 2.04569C68.5435 2.24648 68.5696 2.43473 68.5696 2.63552C68.5696 2.83632 68.5435 3.03711 68.4913 3.23791C68.4391 3.4387 68.3477 3.6144 68.2432 3.76499C68.1388 3.91559 67.9952 4.04108 67.8254 4.14148C67.6557 4.24188 67.4729 4.27953 67.264 4.27953C67.0551 4.27953 66.8593 4.22933 66.7026 4.14148C66.546 4.04108 66.4023 3.91559 66.2979 3.76499C66.1934 3.6144 66.1021 3.4387 66.0498 3.23791C65.9976 3.03711 65.9584 2.84887 65.9584 2.63552C65.9584 2.42218 65.9845 2.24648 66.0498 2.04569Z" fill="white"/>
<path d="M86.0906 7.34152H86.7956V5.13278H89.9682V4.5304H82.918V5.13278H86.0906V7.34152Z" fill="white"/>
<path d="M85.2811 3.18758C85.5553 3.06208 85.7903 2.91149 85.9861 2.74834C86.1819 2.58519 86.3386 2.3844 86.4431 2.17106C86.5606 2.3844 86.7303 2.57264 86.9261 2.74834C87.135 2.91149 87.37 3.06208 87.6442 3.18758C87.9184 3.31307 88.2317 3.42602 88.5712 3.51387C88.9106 3.60172 89.2762 3.66446 89.6548 3.71466V3.07463C89.224 3.02443 88.8453 2.94913 88.4928 2.83619C88.1403 2.72324 87.84 2.58519 87.592 2.42205C87.3439 2.2589 87.1481 2.05811 87.0045 1.83222C86.8608 1.60632 86.7956 1.35533 86.7825 1.07924V0.501953H86.0644V1.07924C86.0644 1.36788 85.973 1.63142 85.8294 1.85731C85.6858 2.08321 85.49 2.284 85.2289 2.4597C84.9677 2.62284 84.6674 2.76089 84.328 2.86129C83.9885 2.96168 83.6099 3.03698 83.1921 3.08718V3.72721C83.5969 3.67701 83.9624 3.61427 84.3149 3.52642C84.6544 3.43857 84.9677 3.33817 85.2419 3.21268L85.2811 3.18758Z" fill="white"/>
<path d="M107.424 6.19947H107.032V1.20471C107.032 1.02901 106.967 0.878415 106.836 0.752918C106.706 0.627422 106.549 0.552124 106.353 0.552124H100.648V1.15451H106.314V6.19947H104.761V3.2503H104.042V6.19947H102.371V3.2503H101.653V6.19947H100.348V6.80185H107.398V6.19947H107.424Z" fill="white"/>
<path d="M124.201 2.5475H125.572V1.94512H124.201V0.476807H123.483V4.02836H124.201V2.5475Z" fill="white"/>
<path d="M119.958 2.34678C120.114 2.68562 120.297 2.98681 120.532 3.22525C120.767 3.4637 121.041 3.65194 121.394 3.78999C121.133 3.82764 120.898 3.91548 120.676 4.01588C120.454 4.12883 120.258 4.26688 120.088 4.43002C119.918 4.59317 119.788 4.79396 119.683 5.0073C119.579 5.22065 119.54 5.45909 119.54 5.72263C119.54 6.02383 119.605 6.29992 119.736 6.53836C119.866 6.78935 120.036 6.99015 120.245 7.16584C120.454 7.34154 120.702 7.46703 120.989 7.56743C121.263 7.66783 121.55 7.70548 121.851 7.70548C122.151 7.70548 122.438 7.65528 122.712 7.56743C122.987 7.46703 123.235 7.34154 123.457 7.16584C123.665 6.99015 123.848 6.78935 123.966 6.53836C124.096 6.29992 124.162 6.02383 124.162 5.72263C124.162 5.43399 124.109 5.183 123.992 4.95711C123.874 4.73121 123.731 4.53042 123.535 4.35472C123.339 4.19158 123.13 4.05353 122.869 3.94058C122.621 3.84019 122.36 3.77744 122.086 3.73979V3.35075C121.825 3.3131 121.59 3.22525 121.381 3.08721C121.159 2.94916 120.976 2.77347 120.819 2.56012C120.663 2.34678 120.532 2.12089 120.441 1.85734C120.349 1.5938 120.297 1.33026 120.297 1.05417H121.968V0.451782H117.934V1.05417H119.618C119.618 1.33026 119.566 1.60635 119.461 1.85734C119.37 2.12089 119.239 2.35933 119.07 2.57267C118.913 2.78602 118.717 2.96171 118.495 3.09976C118.273 3.2378 118.051 3.32565 117.803 3.35075V3.96568C118.352 3.87784 118.796 3.68959 119.135 3.4135C119.474 3.13741 119.749 2.77347 119.945 2.33423L119.958 2.34678ZM121.838 4.31707C122.06 4.31707 122.268 4.35472 122.464 4.41747C122.66 4.48022 122.83 4.58062 122.973 4.70611C123.117 4.83161 123.222 4.9822 123.313 5.14535C123.391 5.32104 123.443 5.50929 123.443 5.72263C123.443 5.93598 123.404 6.12422 123.313 6.29992C123.235 6.47561 123.117 6.62621 122.973 6.75171C122.83 6.8772 122.66 6.9776 122.464 7.04035C122.268 7.11564 122.06 7.14074 121.838 7.14074C121.616 7.14074 121.394 7.1031 121.211 7.04035C121.015 6.96505 120.845 6.8772 120.715 6.75171C120.571 6.62621 120.454 6.47561 120.375 6.29992C120.297 6.12422 120.245 5.93598 120.245 5.72263C120.245 5.50929 120.284 5.32104 120.375 5.14535C120.454 4.96966 120.571 4.81906 120.715 4.70611C120.858 4.58062 121.028 4.49277 121.211 4.41747C121.407 4.35472 121.616 4.31707 121.838 4.31707Z" fill="white"/>
<path d="M143.014 6.31251H139.842V4.69361H142.662V4.09123H137.061V2.88646H142.623V0.865968C142.623 0.740471 142.583 0.652624 142.518 0.577326C142.453 0.502028 142.348 0.476929 142.231 0.476929H136.356V1.07931H141.918V2.27153H136.356V4.00338C136.356 4.19162 136.408 4.35477 136.539 4.49282C136.656 4.63086 136.826 4.69361 137.035 4.69361H139.137V6.31251H135.964V6.9149H143.014V6.31251Z" fill="white"/>
<path d="M159.256 0.476887V5.2332H156.24V4.45512C156.449 4.41748 156.645 4.34218 156.827 4.24178C157.01 4.14138 157.18 4.01589 157.324 3.85274C157.467 3.70215 157.585 3.5139 157.663 3.31311C157.754 3.09976 157.794 2.87387 157.794 2.62288C157.794 2.49738 157.78 2.35933 157.741 2.22129C157.702 2.08324 157.663 1.95774 157.598 1.83225C157.545 1.70675 157.467 1.59381 157.389 1.49341C157.31 1.39301 157.219 1.30516 157.141 1.24242H158.146V0.752979H156.253V0H155.535V0.778078H153.642V1.26751H154.66C154.569 1.33026 154.477 1.41811 154.399 1.51851C154.321 1.6189 154.242 1.73185 154.19 1.8448C154.125 1.97029 154.086 2.09579 154.046 2.23384C154.007 2.37188 153.994 2.50993 153.994 2.64798C153.994 2.89897 154.033 3.13741 154.125 3.33821C154.203 3.55155 154.321 3.72725 154.464 3.87784C154.608 4.02844 154.765 4.15393 154.934 4.25433C155.104 4.35473 155.287 4.41748 155.483 4.45512V5.2332H153.433V5.76029H159.282V7.40429H160V0.476887H159.282H159.256ZM155.404 3.86529C155.261 3.80254 155.13 3.72725 155.013 3.6143C154.908 3.50135 154.817 3.37585 154.752 3.21271C154.686 3.04956 154.66 2.87387 154.66 2.67307C154.66 2.47228 154.699 2.28404 154.765 2.12089C154.83 1.95775 154.921 1.80715 155.039 1.6942C155.143 1.58126 155.274 1.48086 155.43 1.41811C155.574 1.35536 155.731 1.31771 155.887 1.31771C156.057 1.31771 156.214 1.35536 156.357 1.41811C156.501 1.48086 156.632 1.58126 156.749 1.6942C156.854 1.8197 156.945 1.95775 157.01 2.12089C157.075 2.28404 157.102 2.47228 157.102 2.66053C157.102 2.86132 157.075 3.04956 157.01 3.21271C156.945 3.37585 156.854 3.50135 156.749 3.6143C156.632 3.72725 156.501 3.80254 156.357 3.86529C156.214 3.91549 156.057 3.95314 155.9 3.95314C155.731 3.95314 155.574 3.92804 155.43 3.86529H155.404Z" fill="white"/>
<path d="M28.6969 19.59V21.6732H34.572C34.089 22.1752 33.6973 22.7399 33.4101 23.3925C33.0576 24.158 32.8878 24.9863 32.8878 25.8648C32.8878 26.8186 33.0706 27.6719 33.4492 28.4249C33.8148 29.1904 34.3109 29.843 34.9376 30.3952C35.5643 30.9474 36.2824 31.3741 37.1049 31.6627C37.9274 31.9639 38.7891 32.1145 39.6769 32.1145C40.63 32.1145 41.5047 31.9514 42.3272 31.6251C43.1367 31.2988 43.8417 30.847 44.4554 30.2823C45.069 29.7175 45.539 29.0524 45.8785 28.2869C46.2179 27.5213 46.3876 26.7182 46.3876 25.8773C46.3876 24.9612 46.2048 24.1204 45.8262 23.3423C45.5259 22.7148 45.1343 22.1626 44.6643 21.6732H50.5525V19.59H28.6838H28.6969ZM43.5153 27.4711C43.2934 27.9606 42.9931 28.3873 42.6014 28.7512C42.2097 29.1151 41.7658 29.4038 41.2697 29.6171C40.7736 29.8305 40.2383 29.9309 39.6638 29.9309C39.0502 29.9309 38.4758 29.8305 37.9535 29.6171C37.4313 29.4038 36.9874 29.1151 36.6088 28.7512C36.2301 28.3873 35.9299 27.9606 35.721 27.4711C35.5121 26.9817 35.4076 26.4421 35.4076 25.8648C35.4076 25.2875 35.5251 24.7479 35.7471 24.2459C35.9821 23.7439 36.2824 23.3172 36.674 22.9533C37.0657 22.5893 37.5096 22.3007 38.0319 22.0873C38.5541 21.874 39.0894 21.7736 39.6638 21.7736C40.2383 21.7736 40.7867 21.8866 41.3089 22.0999C41.8181 22.3258 42.262 22.627 42.6406 23.0035C43.0192 23.38 43.3195 23.8192 43.5284 24.3086C43.7373 24.7981 43.8417 25.3126 43.8417 25.8648C43.8417 26.4421 43.7373 26.9692 43.5153 27.4711Z" fill="white"/>
<path d="M39.6247 14.9718C40.4472 15.9757 41.6614 16.7162 43.2803 17.193C44.8993 17.6825 46.936 18.0213 49.3905 18.2221V15.9883C48.2808 15.8879 47.2232 15.7498 46.2049 15.5992C45.1865 15.4361 44.2987 15.2102 43.5154 14.909C42.7451 14.6078 42.1184 14.2313 41.6484 13.7544C41.1783 13.2776 40.9303 12.6752 40.8911 11.9473H49.3774V9.68835H29.8589V11.872H38.3452C38.3061 12.6124 38.058 13.2274 37.5749 13.7042C37.1049 14.1811 36.4782 14.5702 35.6949 14.8714C34.9246 15.1726 34.0237 15.411 33.0315 15.5741C32.0262 15.7373 30.9686 15.8628 29.8589 15.9632V18.2221C32.3265 18.0213 34.3501 17.6825 35.9168 17.2056C37.4835 16.7287 38.7108 15.9883 39.6116 14.9718H39.6247Z" fill="white"/>
<path d="M57.7854 21.7862C58.7385 21.7862 59.6132 21.623 60.4358 21.2967C61.2452 20.9704 61.9502 20.5187 62.5639 19.9539C63.1775 19.3892 63.6475 18.7241 63.987 17.9585C64.3264 17.193 64.4961 16.3898 64.4961 15.549C64.4961 14.6329 64.3134 13.792 63.9347 13.014C63.5692 12.2484 63.06 11.5833 62.4464 11.0186C61.8197 10.4538 61.1016 10.0271 60.2921 9.72596C59.4827 9.42477 58.6471 9.27417 57.7854 9.27417C56.8454 9.27417 55.9706 9.43732 55.1481 9.75106C54.3125 10.0773 53.5945 10.5166 52.9808 11.0688C52.3672 11.6335 51.8841 12.2986 51.5316 13.0642C51.1791 13.8297 51.0094 14.658 51.0094 15.5364C51.0094 16.4902 51.1922 17.3436 51.5708 18.0966C51.9364 18.8621 52.4325 19.5147 53.0592 20.0669C53.6859 20.6191 54.4039 21.0457 55.2265 21.3344C56.049 21.6356 56.9107 21.7862 57.7985 21.7862H57.7854ZM53.8425 17.1302C53.6336 16.6408 53.5292 16.1012 53.5292 15.5239C53.5292 14.9466 53.6467 14.407 53.8686 13.905C54.1036 13.403 54.4039 12.9763 54.7956 12.6124C55.1873 12.2484 55.6312 11.9598 56.1534 11.7465C56.6757 11.5331 57.2109 11.4327 57.7854 11.4327C58.3599 11.4327 58.9082 11.5457 59.4305 11.759C59.9396 11.9849 60.3835 12.2861 60.7622 12.6626C61.1408 13.0391 61.4411 13.4783 61.65 13.9677C61.8589 14.4572 61.9633 14.9717 61.9633 15.5239C61.9633 16.1012 61.8588 16.6283 61.6369 17.1302C61.4149 17.6197 61.1147 18.0464 60.723 18.4103C60.3313 18.7743 59.8874 19.0629 59.3913 19.2762C58.8952 19.4896 58.3599 19.59 57.7854 19.59C57.1718 19.59 56.5973 19.4896 56.0751 19.2762C55.5529 19.0629 55.1089 18.7743 54.7303 18.4103C54.3517 18.0464 54.0514 17.6197 53.8425 17.1302Z" fill="white"/>
<path d="M56.0098 26.4296V23.1918H53.4769V26.668C53.4769 28.814 55.2917 30.5584 57.5243 30.5584H71.8205V28.3748H58.0465C56.9237 28.3748 56.0228 27.5089 56.0228 26.4296H56.0098Z" fill="white"/>
<path d="M71.6508 9.73853H69.1179V24.2585H71.6508V9.73853Z" fill="white"/>
<path d="M12.834 15.7498C12.834 15.3482 13.1735 15.0219 13.5913 15.0094L15.6671 14.909V12.5371L13.5521 12.4367C13.1474 12.4116 12.821 12.1104 12.7948 11.7088L12.6904 9.67578H10.2098L10.1053 11.7088C10.0792 12.0979 9.75282 12.4116 9.34809 12.4367L7.23303 12.5371V14.909L9.30892 15.0094C9.72671 15.0345 10.0531 15.3482 10.0662 15.7498L10.1837 20.3932H12.7165L12.834 15.7498Z" fill="white"/>
<path d="M2.84619 21.2591V12.5497H0V26.3417H2.84619V25.9904C2.84619 25.526 3.08119 25.0868 3.47287 24.8107L9.15218 22.5518C9.63525 22.3635 10.0269 21.987 10.1444 21.4976C10.1705 21.3721 10.1967 21.2466 10.1967 21.1211V20.3807L3.66871 21.8741C3.25092 21.9745 2.84619 21.6607 2.84619 21.2466V21.2591Z" fill="white"/>
<path d="M20.0538 21.2592C20.0538 21.6733 19.6491 21.9745 19.2313 21.8866L12.7034 20.3932V21.1337C12.7034 21.2592 12.7164 21.3847 12.7556 21.5102C12.8731 21.9996 13.2778 22.3761 13.7478 22.5643L19.4272 24.8233C19.8188 25.0994 20.0538 25.5386 20.0538 26.0029V26.3543H22.9V12.5623H20.0538V21.2717V21.2592Z" fill="white"/>
<path d="M94.1199 17.5319V19.5021H72.6821V17.5319H94.1199ZM75.215 16.0886C74.7972 16.0886 74.4708 15.9632 74.2227 15.7122C73.9747 15.4612 73.8441 15.1349 73.8441 14.7458V11.0562C73.8441 10.6546 73.9747 10.3409 74.2227 10.1025C74.4708 9.86402 74.8102 9.73853 75.215 9.73853H92.9449V11.759H76.3247V14.0556H92.9449V16.1012H75.215V16.0886ZM76.0506 30.6211C75.3194 30.6211 74.7711 30.4078 74.4055 29.9686C74.0399 29.5419 73.8441 29.0273 73.8441 28.4249V24.7103H90.4643V22.9659H73.8441V20.9454H91.6001C92.0179 20.9454 92.3443 21.0709 92.5793 21.3218C92.8274 21.5728 92.9449 21.8991 92.9449 22.2882V26.668H76.3247V28.5379H93.1799V30.6086H76.0375L76.0506 30.6211Z" fill="white"/>
<path d="M112.359 25.3251V9.93925H114.853V28.5378H112.359V27.4711H94.2635V25.3251H112.359ZM101.967 9.24902C102.828 9.24902 103.677 9.39962 104.499 9.70081C105.322 10.002 106.04 10.4287 106.68 10.9683C107.306 11.5205 107.816 12.1731 108.207 12.9386C108.599 13.7041 108.795 14.545 108.795 15.4611C108.795 16.3772 108.612 17.1553 108.246 17.9083C107.881 18.6613 107.385 19.3013 106.771 19.8535C106.144 20.4057 105.426 20.8323 104.591 21.1335C103.755 21.4473 102.893 21.5979 101.967 21.5979C101.04 21.5979 100.23 21.4473 99.3945 21.1586C98.5589 20.87 97.8409 20.4559 97.2011 19.9288C96.5744 19.4017 96.0653 18.7491 95.6866 17.9961C95.308 17.2431 95.1122 16.4023 95.1122 15.4611C95.1122 14.5826 95.295 13.7669 95.6605 13.0014C96.0261 12.2484 96.5222 11.5833 97.1359 11.0311C97.7625 10.4789 98.4806 10.0397 99.3162 9.72591C100.152 9.41217 101.027 9.24902 101.967 9.24902ZM101.967 11.395C101.34 11.395 100.765 11.4954 100.23 11.7088C99.6948 11.9221 99.2378 12.1982 98.8462 12.5747C98.4545 12.9386 98.1542 13.3779 97.9323 13.8673C97.7103 14.3693 97.6059 14.8964 97.6059 15.4611C97.6059 16.0258 97.7103 16.578 97.9323 17.0675C98.1542 17.5569 98.4545 17.971 98.8462 18.3224C99.2378 18.6738 99.6948 18.9499 100.23 19.1507C100.765 19.3515 101.34 19.4519 101.967 19.4519C102.593 19.4519 103.168 19.3515 103.69 19.1507C104.212 18.9499 104.669 18.6738 105.061 18.3224C105.452 17.971 105.753 17.5569 105.975 17.0675C106.197 16.578 106.301 16.0384 106.301 15.4611C106.301 14.8838 106.197 14.3693 105.975 13.8673C105.753 13.3653 105.452 12.9386 105.061 12.5747C104.669 12.2107 104.212 11.9221 103.69 11.7088C103.168 11.4954 102.593 11.395 101.967 11.395Z" fill="white"/>
</svg>
