<svg width="30" height="30" viewBox="0 0 30 30" fill="none" xmlns="http://www.w3.org/2000/svg">
<path d="M0 15C0 6.71573 6.71573 0 15 0C23.2843 0 30 6.71573 30 15C30 23.2843 23.2843 30 15 30C6.71573 30 0 23.2843 0 15Z" fill="#7E869E" fill-opacity="0.25"/>
<circle cx="15" cy="11.6667" r="6.66667" fill="#8D8D8D"/>
<path fill-rule="evenodd" clip-rule="evenodd" d="M25.4331 25.5196C25.49 25.6167 25.4723 25.7398 25.3911 25.8178C22.6954 28.4079 19.0336 30 15 30C10.9664 30 7.30472 28.4079 4.60897 25.8179C4.52781 25.7399 4.51012 25.6169 4.56699 25.5198C6.48396 22.2465 10.436 20 15.0001 20C19.5642 20 23.5161 22.2464 25.4331 25.5196Z" fill="#8D8D8D"/>
</svg>
